<svg width="747" height="308" viewBox="0 0 747 308" fill="none" xmlns="http://www.w3.org/2000/svg">
<path d="M0 307.967C0.0492981 236.337 0.0985991 164.707 0.131465 93.077H39.6521L39.2413 110.923C39.2084 112.09 39.192 113.256 39.1591 114.44C38.7154 134.274 38.2553 154.108 37.8116 173.942C38.4196 193.694 39.0276 213.463 39.6521 233.215C39.6521 258.143 39.6685 283.072 39.6685 308C26.4402 308 13.2119 307.984 0 307.967Z" fill="white"/>
<path fill-rule="evenodd" clip-rule="evenodd" d="M142.816 111.268C117.033 83.9895 82.5246 88.985 79.8625 89.4123C75.2449 90.1682 46.8657 95.2952 30.5973 122.393C21.016 138.34 20.5256 153.779 20.0825 167.729L20.0804 167.796C19.1109 198.755 29.9564 224.045 39.3231 233.527C44.5815 238.835 50.8753 242.992 50.8753 242.992C50.8753 242.992 56.5445 246.722 62.8382 249.319C84.3486 258.176 107.026 252.326 107.026 252.326C113.632 250.633 125.463 246.558 137.098 236.271C140.187 233.527 148.748 225.508 155.519 212.033C166.496 190.194 165.214 169.045 164.327 160.993C163.456 152.99 160.629 130.1 142.816 111.268ZM127.321 171.987C127.321 197.897 107.699 218.902 83.495 218.902C59.2906 218.902 39.669 197.897 39.669 171.987C39.669 146.076 59.2906 125.071 83.495 125.071C107.699 125.071 127.321 146.076 127.321 171.987Z" fill="white"/>
<path d="M152.61 307.556L184.785 238.145L252.11 92.9454H292.206L192.936 307.556H152.61Z" fill="white"/>
<path d="M168.155 200.316C170.44 192.84 173.381 179.956 172.066 163.934C170.916 150.016 167.005 139.187 163.998 132.466C159.479 123.674 154.434 117.266 150.556 112.96C138.889 100.077 126.761 94.3421 125.923 94.0463C125.825 94.0134 123.59 92.7481 123.409 92.6002C137.213 92.7317 151 92.8632 164.803 92.9946L206.361 191.443C199.131 207.021 191.901 222.616 184.687 238.194" fill="white"/>
<path d="M123.59 92.7649C122.769 92.7484 126.992 94.5561 126.992 94.5561L131.692 97.2017L123.935 92.9456" fill="white"/>
<path d="M244.962 250.108C245.06 237.323 245.159 224.555 245.274 211.77C262.364 174.78 279.454 137.774 296.527 100.784C296.478 112.303 296.412 123.823 296.363 135.342C294.769 136.854 292.6 139.253 290.743 142.671C288.558 146.697 287.687 150.444 287.325 152.876C286.914 154.453 286.504 156.014 286.109 157.592L285.123 250.108H244.962Z" fill="white"/>
<path d="M496.777 183.046C544.497 183.046 592.218 183.046 639.922 183.046C640.201 178.609 640.251 173.449 639.807 167.73C639.413 162.603 638.689 157.986 637.851 153.993C625.379 153.467 612.907 152.941 600.451 152.415H516.348H512.93C507.392 162.834 501.854 173.268 496.3 183.687C496.333 177.376 496.333 171.017 496.3 164.575C496.267 160.533 496.235 156.523 496.185 152.53C495.659 146.121 495.134 139.713 494.591 133.288C493.934 129.804 493.293 126.304 492.636 122.82C492.061 121.472 491.502 120.109 490.927 118.761C495.232 113.355 499.472 109.296 503.021 106.321C504.911 104.728 507.737 102.394 511.829 99.9128C517.794 96.2976 522.806 94.5886 527.227 93.1096C530.184 92.1237 534.293 90.7762 539.814 89.8395C546.962 88.6235 552.336 88.8207 559.122 89.0508C564.069 89.2151 568.505 89.3958 574.405 90.4968C579.614 91.4664 583.936 92.781 587.124 93.8984C576.623 103.364 547.882 122.803 542.985 124.25C541.556 124.677 536.922 126.123 531.499 129.36C529.346 130.642 526.914 132.104 524.17 134.717C521.689 137.067 520.16 139.203 519.142 140.633C517.301 143.213 514.902 147.107 512.93 152.382" fill="white"/>
<path d="M559.369 122.064C562.967 122.376 567.569 123.132 572.696 124.94C576.869 126.418 580.353 128.226 583.081 129.919C584.921 130.97 587.222 132.531 589.555 134.766C592.135 137.231 593.943 139.729 595.175 141.701C596.934 145.283 598.676 148.849 600.434 152.431L637.835 154.009C637.292 149.901 636.159 144.396 633.677 138.299C631.344 132.548 628.534 128.111 626.217 124.956C623.916 121.423 620.876 117.331 616.932 113.174C613.219 109.263 609.587 106.223 606.415 103.889C603.211 101.835 599.579 99.7318 595.537 97.7434C592.185 96.0837 588.964 94.7034 585.957 93.5531C572.055 103.626 558.153 113.7 544.267 123.789" fill="white"/>
<path d="M347.157 250.502C346.993 199.183 346.713 161.798 346.648 157.115C346.648 157.115 346.582 152.547 345.596 147.946C345.234 146.269 344.774 144.856 344.725 144.708C344.347 143.574 344.018 142.786 343.345 141.225C342.638 139.581 342.293 138.76 341.833 137.889C341.833 137.889 340.88 136.098 339.582 134.405C337.905 132.22 330.084 124.332 318.498 124.792C315.82 124.891 311.449 125.433 306.585 127.733C301.556 130.116 298.188 133.353 296.314 135.457C296.364 124.365 296.413 113.273 296.462 102.164C296.462 101.737 296.462 101.31 296.462 100.882C298.451 99.6828 301.162 98.1381 304.465 96.5113C308.672 94.4572 312.632 92.8797 315.195 91.9923C328.292 87.5226 340.321 88.9358 340.321 88.9358C345.119 89.4452 354.782 91.1707 364.707 98.2696C373.794 104.777 378.823 112.714 381.206 117.118C381.206 161.486 381.206 205.838 381.206 250.206C369.867 250.305 358.512 250.403 347.157 250.502Z" fill="white"/>
<path d="M488.987 250.206L489.02 148.176C489.004 143.295 488.576 137.297 487.229 130.609C486.867 128.604 486.44 126.879 485.389 123.329C485.389 123.329 484.468 120.207 483.515 117.414C483.318 116.838 483.006 115.918 482.48 114.752C482.316 114.374 482.135 113.979 481.921 113.568C481.642 112.993 480.623 110.988 478.799 108.589C477.55 106.93 476.482 105.845 475.25 104.596C473.836 103.166 471.914 101.326 469.449 99.3541C467.937 98.2038 466.113 96.9713 464.01 95.8211C462.202 94.8351 460.493 94.0628 458.932 93.4712C453.246 106.19 447.56 118.909 441.875 131.611C443.074 134.684 444.274 137.757 445.474 140.83C446.377 145.366 447.265 149.901 448.169 154.436C448.415 186.447 448.661 218.475 448.908 250.486L488.987 250.206Z" fill="white"/>
<path d="M381.222 117.118C386.02 110.397 393.612 101.917 404.868 95.9195C407.268 94.6378 409.634 93.5861 411.885 92.7316C416.946 90.809 424.9 88.5084 434.809 88.5577C445.408 88.607 453.805 91.3184 458.948 93.471C453.838 107.669 448.744 121.867 443.633 136.065C442.384 134.043 440.248 131.168 436.813 128.801C429.764 123.921 422.369 124.726 420.069 125.071C417.324 125.088 412.263 125.498 406.742 128.407C402.025 130.888 398.936 134.126 397.211 136.229C395.995 137.856 394.631 139.943 393.365 142.49C392.067 145.103 391.196 147.535 390.621 149.556C390.03 151.561 389.471 153.795 389.011 156.227C388.238 160.401 387.926 164.197 387.86 167.467C387.745 195.14 387.614 222.813 387.499 250.502L381.222 250.206V117.118V117.118Z" fill="white"/>
<path d="M496.283 183.03L511.599 182.783V183.046L511.549 242.697C508.854 241.119 505.864 239.147 502.741 236.666C500.276 234.71 498.14 232.738 496.283 230.882C496.283 214.925 496.283 198.969 496.283 183.03Z" fill="white"/>
<path d="M551.793 219.296C556.46 220.003 565.498 220.693 575.999 216.946C585.858 213.43 592.431 207.629 595.8 204.194C606.925 209.239 618.05 214.268 629.175 219.313C626.94 222.944 623.456 227.874 618.362 232.853C611.214 239.837 604.46 243.403 600.812 245.293C599.432 245.999 592.99 249.286 583.705 251.701C577.74 253.246 569.097 254.84 558.465 254.511C551.58 254.676 542.246 254.117 531.63 251.11C523.463 248.793 516.726 245.638 511.55 242.713C511.566 223.585 511.582 204.474 511.599 185.346C512.289 188.764 515.099 200.744 525.764 209.88C536.692 219.247 548.589 219.362 551.793 219.296Z" fill="white"/>
<path d="M479.973 87.0637C473.554 89.6628 467.875 84.5865 465.52 82.6778C464.874 82.1499 464.456 81.7438 464.285 81.5813C456.004 58.6162 447.724 35.6308 439.424 12.6657C430.497 12.6251 421.571 12.5845 412.644 12.5642C416.538 33.58 420.431 54.5958 424.325 75.5913C424.059 76.2614 423.755 76.9112 423.432 77.5609C421.248 81.6626 415.987 87.4495 408.257 87.4698C401.97 87.4901 396.12 83.6728 393.082 77.6015C390.1 56.0984 387.118 34.5749 384.155 13.0718C375.855 13.0109 367.555 12.95 359.236 12.8891C358.382 34.1485 357.527 55.3877 356.691 76.6472C353.805 84.221 346.283 89.0333 338.401 88.5257C331.45 88.079 325.277 83.5306 322.675 76.9518C325.638 55.5299 328.62 34.1079 331.583 12.6657C322.713 12.7266 313.863 12.8079 304.993 12.8688C299.903 31.0622 277.473 86.0688 277.074 86.2312C272.971 87.8353 268.28 88.749 264.558 86.8404C258.537 83.754 257.188 76.8299 257.056 75.9974C267.938 50.9206 278.802 25.8438 289.685 0.787231C345.087 0.787231 400.489 0.787231 455.91 0.787231C466.792 25.1737 477.656 49.5398 488.539 73.9263C488.995 74.7182 491.274 82.4951 479.973 87.0637Z" fill="white"/>
<path d="M462.499 72.3831C459.575 79.8147 451.977 84.9113 443.431 85.1753C435.378 85.4393 427.8 81.3782 424.02 74.7791" fill="white"/>
<path d="M356.673 75.4698C359.541 82.2111 367.119 86.6376 375.381 86.3939C383.358 86.1705 390.404 81.6222 392.949 75.0433" fill="white"/>
<path d="M281.138 76.0177C281.385 76.4644 287.823 87.3074 301.251 87.815C310.026 88.1399 318.344 83.9164 322.789 76.8705" fill="white"/>
<path d="M700.477 179.102C699.482 178.743 698.487 178.401 697.473 178.024C690.433 174.831 684.906 171.812 683.533 166.886C682.257 162.382 684.691 157.322 688.489 154.408C692.708 151.202 698.629 150.627 704.007 151.035C706.139 151.186 708.17 151.489 710.002 151.853C713.864 152.606 716.71 153.589 717.167 153.767C716.988 153.724 716.51 153.58 715.734 153.37C721.346 154.969 727.334 157.297 733.518 160.503C733.876 160.502 741.628 160.395 745.16 154.726C747.829 150.441 746.937 144.825 742.89 140.799C709.384 124.651 675.246 125.315 659.118 140.502C652.055 147.169 646.164 159.083 649.383 170.207C654.271 187.12 674.127 194.158 691.596 200.356C692.909 200.817 694.302 201.298 695.695 201.815C695.715 201.816 695.735 201.834 695.735 201.834C700.745 204.377 704.439 207.102 705.558 211.026C706.971 215.936 704.1 220.837 700.581 223.503C698.882 224.795 697.185 225.463 696.128 225.813C692.201 226.081 683.771 226.191 674.263 222.362C666.147 219.101 660.986 214.485 658.427 211.848C652.182 209.125 645.024 210.198 641.041 214.231C636.117 219.21 638.697 226.015 638.835 226.351C643.279 230.83 651.538 238.021 664.229 243.145C669.957 245.461 679.39 248.454 690.626 248.978C697.061 249.279 704.137 248.758 711.439 246.842C717.683 245.206 732.307 241.374 739.117 228.791C742.351 222.848 743.339 215.81 741.852 209.472C737.902 192.36 718.025 185.303 700.477 179.102Z" fill="white"/>
</svg>
